<svg width="179" height="47" viewBox="0 0 179 47" fill="none" xmlns="http://www.w3.org/2000/svg">
<path d="M70.4446 19.223C70.3736 18.4418 70.0575 17.8345 69.4964 17.4013C68.9425 16.9609 68.1506 16.7408 67.1207 16.7408C66.4389 16.7408 65.8707 16.8295 65.4162 17.0071C64.9616 17.1847 64.6207 17.4297 64.3935 17.7422C64.1662 18.0476 64.049 18.3991 64.0419 18.7969C64.0277 19.1236 64.0916 19.4112 64.2337 19.6598C64.3828 19.9084 64.5959 20.1286 64.8729 20.3203C65.157 20.505 65.4979 20.6683 65.8956 20.8104C66.2933 20.9524 66.7408 21.0767 67.2379 21.1832L69.1129 21.6094C70.1925 21.8438 71.1442 22.1562 71.968 22.5469C72.799 22.9375 73.495 23.4027 74.0561 23.9425C74.6243 24.4822 75.054 25.1037 75.3452 25.8068C75.6364 26.5099 75.7855 27.2983 75.7926 28.1719C75.7855 29.5497 75.4375 30.7322 74.7486 31.7195C74.0597 32.7067 73.0689 33.4631 71.7763 33.9886C70.4908 34.5142 68.9389 34.777 67.1207 34.777C65.2955 34.777 63.7045 34.5036 62.348 33.9567C60.9915 33.4098 59.9368 32.5788 59.1839 31.4638C58.4311 30.3487 58.044 28.9389 58.0227 27.2344H63.0724C63.1151 27.9375 63.3033 28.5234 63.6371 28.9922C63.9709 29.4609 64.429 29.8161 65.0114 30.0575C65.6009 30.299 66.2827 30.4197 67.0568 30.4197C67.767 30.4197 68.3707 30.3239 68.8679 30.1321C69.3722 29.9403 69.7592 29.674 70.0291 29.3331C70.299 28.9922 70.4375 28.6016 70.4446 28.1612C70.4375 27.7493 70.3097 27.3977 70.0611 27.1065C69.8125 26.8082 69.429 26.5526 68.9105 26.3395C68.3991 26.1193 67.7457 25.9169 66.9503 25.7322L64.6705 25.1996C62.7812 24.7663 61.2933 24.0668 60.2067 23.1009C59.12 22.1278 58.5803 20.8139 58.5874 19.1591C58.5803 17.8097 58.9425 16.6271 59.674 15.6115C60.4055 14.5959 61.4176 13.804 62.7102 13.2358C64.0028 12.6676 65.4766 12.3835 67.1314 12.3835C68.8217 12.3835 70.2884 12.6712 71.5312 13.2464C72.7812 13.8146 73.7507 14.6136 74.4396 15.6435C75.1286 16.6733 75.4801 17.8665 75.4943 19.223H70.4446ZM78.456 40.6364V18.1364H83.6122V20.9382H83.772C83.9851 20.4411 84.2869 19.9616 84.6776 19.5C85.0753 19.0384 85.5795 18.6619 86.1903 18.3707C86.8082 18.0724 87.5469 17.9233 88.4062 17.9233C89.5426 17.9233 90.6044 18.2216 91.5916 18.8182C92.5859 19.4148 93.3885 20.3345 93.9993 21.5774C94.6101 22.8203 94.9155 24.4041 94.9155 26.3288C94.9155 28.1825 94.6207 29.7344 94.0312 30.9844C93.4489 32.2344 92.6605 33.1719 91.6662 33.7969C90.679 34.4219 89.5817 34.7344 88.3743 34.7344C87.5504 34.7344 86.8366 34.5994 86.233 34.3295C85.6293 34.0597 85.1214 33.7045 84.7095 33.2642C84.3047 32.8239 83.9922 32.3516 83.772 31.8473H83.6655V40.6364H78.456ZM83.5589 26.3182C83.5589 27.1989 83.6761 27.9659 83.9105 28.6193C84.152 29.2727 84.4964 29.7805 84.9439 30.1428C85.3984 30.4979 85.9418 30.6754 86.5739 30.6754C87.2131 30.6754 87.7564 30.4979 88.2038 30.1428C88.6513 29.7805 88.9886 29.2727 89.2159 28.6193C89.4503 27.9659 89.5675 27.1989 89.5675 26.3182C89.5675 25.4375 89.4503 24.674 89.2159 24.0277C88.9886 23.3814 88.6513 22.8807 88.2038 22.5256C87.7635 22.1705 87.2202 21.9929 86.5739 21.9929C85.9347 21.9929 85.3913 22.1669 84.9439 22.5149C84.4964 22.8629 84.152 23.3601 83.9105 24.0064C83.6761 24.6527 83.5589 25.4233 83.5589 26.3182ZM105.284 34.8089C103.565 34.8089 102.088 34.4574 100.852 33.7543C99.6234 33.044 98.6752 32.0568 98.0076 30.7926C97.3471 29.5213 97.0169 28.0476 97.0169 26.3714C97.0169 24.6882 97.3471 23.2145 98.0076 21.9503C98.6752 20.679 99.6234 19.6918 100.852 18.9886C102.088 18.2784 103.565 17.9233 105.284 17.9233C107.003 17.9233 108.476 18.2784 109.705 18.9886C110.941 19.6918 111.889 20.679 112.55 21.9503C113.217 23.2145 113.551 24.6882 113.551 26.3714C113.551 28.0476 113.217 29.5213 112.55 30.7926C111.889 32.0568 110.941 33.044 109.705 33.7543C108.476 34.4574 107.003 34.8089 105.284 34.8089ZM105.316 30.8778C105.941 30.8778 106.47 30.6861 106.903 30.3026C107.336 29.919 107.667 29.3864 107.894 28.7045C108.128 28.0227 108.246 27.2344 108.246 26.3395C108.246 25.4304 108.128 24.6349 107.894 23.9531C107.667 23.2713 107.336 22.7386 106.903 22.3551C106.47 21.9716 105.941 21.7798 105.316 21.7798C104.67 21.7798 104.123 21.9716 103.675 22.3551C103.235 22.7386 102.898 23.2713 102.663 23.9531C102.436 24.6349 102.322 25.4304 102.322 26.3395C102.322 27.2344 102.436 28.0227 102.663 28.7045C102.898 29.3864 103.235 29.919 103.675 30.3026C104.123 30.6861 104.67 30.8778 105.316 30.8778ZM116.22 34.5V18.1364H121.28V21.1193H121.45C121.749 20.0398 122.235 19.2372 122.91 18.7116C123.585 18.179 124.369 17.9126 125.264 17.9126C125.506 17.9126 125.754 17.9304 126.01 17.9659C126.266 17.9943 126.504 18.0405 126.724 18.1044V22.6321C126.475 22.5469 126.149 22.4794 125.744 22.4297C125.346 22.38 124.991 22.3551 124.678 22.3551C124.061 22.3551 123.503 22.4936 123.006 22.7706C122.516 23.0405 122.129 23.4205 121.845 23.9105C121.568 24.3935 121.429 24.9616 121.429 25.6151V34.5H116.22ZM138.845 18.1364V21.9716H128.522V18.1364H138.845ZM130.684 14.2159H135.894V29.3544C135.894 29.674 135.944 29.9332 136.043 30.1321C136.15 30.3239 136.302 30.4624 136.501 30.5476C136.7 30.6257 136.938 30.6648 137.215 30.6648C137.414 30.6648 137.623 30.647 137.843 30.6115C138.071 30.5689 138.241 30.5334 138.355 30.505L139.143 34.2656C138.895 34.3366 138.543 34.4254 138.088 34.532C137.641 34.6385 137.105 34.706 136.48 34.7344C135.258 34.7912 134.211 34.6491 133.337 34.3082C132.471 33.9602 131.806 33.4205 131.345 32.6889C130.89 31.9574 130.67 31.0376 130.684 29.9297V14.2159ZM141.503 34.5V18.1364H146.712V34.5H141.503ZM144.113 16.2294C143.381 16.2294 142.753 15.9879 142.227 15.505C141.702 15.0149 141.439 14.4254 141.439 13.7365C141.439 13.0547 141.702 12.4723 142.227 11.9893C142.753 11.4993 143.381 11.2543 144.113 11.2543C144.852 11.2543 145.48 11.4993 145.999 11.9893C146.524 12.4723 146.787 13.0547 146.787 13.7365C146.787 14.4254 146.524 15.0149 145.999 15.505C145.48 15.9879 144.852 16.2294 144.113 16.2294ZM159.329 18.1364V21.9716H148.803V18.1364H159.329ZM150.998 34.5V17.3054C150.998 16.0412 151.236 14.9936 151.711 14.1626C152.187 13.3246 152.848 12.6996 153.693 12.2876C154.538 11.8686 155.515 11.6591 156.623 11.6591C157.347 11.6591 158.029 11.7159 158.668 11.8295C159.314 11.9361 159.794 12.032 160.106 12.1172L159.275 15.9311C159.084 15.8672 158.849 15.8139 158.572 15.7713C158.302 15.7287 158.047 15.7074 157.805 15.7074C157.194 15.7074 156.775 15.8423 156.548 16.1122C156.321 16.3821 156.207 16.7514 156.207 17.2202V34.5H150.998ZM165.02 40.6364C164.395 40.6364 163.806 40.5866 163.252 40.4872C162.698 40.3949 162.222 40.2706 161.824 40.1143L162.975 36.3324C163.486 36.5028 163.948 36.6023 164.36 36.6307C164.779 36.6591 165.137 36.5916 165.436 36.4283C165.741 36.272 165.975 35.9915 166.139 35.5866L166.341 35.0966L160.525 18.1364H165.979L168.994 29.8125H169.164L172.222 18.1364H177.708L171.54 36.0661C171.242 36.9609 170.819 37.7493 170.272 38.4311C169.733 39.12 169.033 39.6598 168.174 40.0504C167.321 40.4411 166.27 40.6364 165.02 40.6364Z" fill="#1D2229"/>
<circle cx="23.5" cy="23.5" r="23.5" fill="#A1F75E"/>
<path d="M15.5693 14.2148C14.4205 14.2148 13.4868 15.1486 13.4868 16.2973V18.1587C13.4868 17.0099 12.5592 16.0823 11.4104 16.0823C10.2617 16.0823 9.32794 17.0099 9.32794 18.1587V28.8476C9.32794 29.9964 10.2617 30.924 11.4104 30.924C12.5592 30.924 13.4868 29.9902 13.4868 28.8476V30.7089C13.4868 31.8577 14.4205 32.7853 15.5693 32.7853C16.718 32.7853 17.6456 31.8577 17.6456 30.7089V16.2973C17.6518 15.1486 16.718 14.2148 15.5693 14.2148ZM10.5136 18.945C10.575 22.9687 10.4644 23.2144 10.0958 23.2144C9.77024 23.2144 9.77024 21.9858 9.77024 18.945C9.77024 17.2495 10.3968 16.9608 10.5688 17.0652C10.7777 17.2004 10.489 17.2495 10.5136 18.945ZM14.783 17.0406C14.8444 21.0644 14.74 21.3101 14.3652 21.3101C14.0397 21.3101 14.0397 20.0815 14.0397 17.0406C14.0397 15.3452 14.6663 15.0564 14.8383 15.1609C15.041 15.2899 14.7584 15.339 14.783 17.0406Z" fill="#1D2229"/>
<path d="M18.1985 21.6111V25.3829H28.8014V21.6111H18.1985Z" fill="#1D2229"/>
<path d="M8.78121 21.6111H6.625V25.3829H8.78121V21.6111Z" fill="#1D2229"/>
<path d="M40.3749 21.6111H38.2187V25.3829H40.3749V21.6111Z" fill="#1D2229"/>
<path d="M35.5895 16.0762C34.4408 16.0762 33.5132 17.0038 33.5132 18.1525V16.2973C33.5132 15.1486 32.5794 14.2148 31.4307 14.2148C30.2819 14.2148 29.3543 15.1486 29.3543 16.2973V30.7089C29.3543 31.8577 30.2819 32.7853 31.4307 32.7853C32.5794 32.7853 33.5132 31.8577 33.5132 30.7089V28.8476C33.5132 29.9964 34.4469 30.924 35.5895 30.924C36.7383 30.924 37.6659 29.9902 37.6659 28.8476V18.1525C37.672 17.0038 36.7383 16.0762 35.5895 16.0762ZM30.6013 17.0406C30.6628 21.0644 30.5522 21.3101 30.1836 21.3101C29.858 21.3101 29.858 20.0815 29.858 17.0406C29.858 15.3452 30.4846 15.0564 30.6566 15.1609C30.8655 15.2899 30.5768 15.339 30.6013 17.0406ZM34.6496 18.945C34.711 22.9687 34.6005 23.2144 34.2319 23.2144C33.9063 23.2144 33.9063 21.9858 33.9063 18.945C33.9063 17.2495 34.5329 16.9608 34.7049 17.0652C34.9076 17.2004 34.625 17.2495 34.6496 18.945Z" fill="#1D2229"/>
</svg>
